 <svg  version="1.0" xmlns="http://www.w3.org/2000/svg"  width="300.000000pt" height="300.000000pt" viewBox="0 0 300.000000 300.000000"  preserveAspectRatio="xMidYMid meet">  <g transform="translate(0.000000,300.000000) scale(0.100000,-0.100000)" fill="#d21212" stroke="none"> <path d="M1260 2976 c-476 -86 -869 -371 -1083 -784 -110 -213 -156 -388 -164 -624 -13 -378 82 -684 308 -983 207 -275 540 -482 886 -552 126 -25 463 -25 583 0 206 44 418 136 583 254 104 74 266 236 340 340 142 199 235 437 268 680 15 114 6 393 -16 493 -130 591 -574 1035 -1165 1165 -103 23 -437 29 -540 11z m361 -36 c452 -44 836 -272 1087 -645 84 -127 202 -398 202 -467 0 -19 -1 -19 -19 3 -11 13 -15 26 -11 29 21 13 -18 84 -77 141 -58 54 -62 61 -51 84 10 23 28 26 28 4 0 -6 -5 -7 -11 -3 -7 4 -3 -7 7 -25 22 -37 92 -107 76 -76 -6 11 -24 33 -41 49 -17 17 -31 34 -31 40 0 5 14 -3 31 -20 30 -27 31 -28 18 -4 -8 14 -23 36 -34 49 -20 23 -158 121 -171 121 -4 0 24 -28 61 -62 37 -34 62 -64 56 -66 -6 -2 -9 -8 -5 -13 11 -18 -13 -9 -32 12 -64 72 -231 169 -325 189 l-44 9 50 -4 c68 -6 215 -81 288 -145 31 -28 57 -47 57 -42 0 23 -150 138 -207 159 -68 26 -172 53 -202 53 -28 0 -26 10 6 35 21 17 25 27 20 48 -4 14 -15 27 -24 29 -12 2 -18 14 -19 36 -3 61 -45 81 -84 40 -11 -12 -20 -31 -20 -42 0 -18 -4 -17 -26 12 -40 50 -101 36 -87 -19 3 -11 0 -26 -7 -34 -9 -10 -9 -15 -1 -15 6 0 11 5 11 10 0 15 36 12 50 -5 10 -12 9 -19 -3 -38 -10 -16 -12 -28 -5 -40 8 -15 11 -16 24 -2 8 8 23 19 32 24 15 9 13 14 -16 44 l-34 35 36 0 c20 0 33 -4 30 -9 -3 -5 -10 -7 -15 -4 -13 9 -11 -9 3 -23 9 -9 18 2 38 48 19 43 30 56 39 50 8 -4 12 -18 9 -33 -5 -25 10 -54 27 -54 20 1 16 -35 -6 -59 -20 -21 -21 -26 -9 -34 12 -8 13 -13 3 -29 -10 -16 -9 -20 3 -25 23 -9 36 -7 29 3 -8 14 42 3 93 -19 44 -20 59 -36 18 -20 -13 5 -33 6 -44 3 -14 -3 -24 2 -32 16 -6 12 -16 19 -21 15 -6 -4 -4 -12 5 -23 27 -29 18 -32 -20 -6 -37 25 -81 34 -69 15 4 -7 -7 -8 -32 -4 -21 3 -51 1 -68 -5 -28 -10 -29 -10 -11 4 27 21 6 19 -56 -5 -28 -11 -54 -18 -56 -15 -6 6 39 24 113 45 57 17 60 19 57 46 l-3 29 27 -30 c25 -29 25 -29 10 -3 -23 39 -19 58 6 28 18 -22 20 -22 16 -5 -2 14 4 24 22 33 25 12 25 12 -5 6 -16 -4 -35 -7 -41 -7 -6 0 -27 -13 -45 -28 -31 -26 -32 -28 -11 -29 44 0 21 -16 -41 -27 -35 -7 -89 -24 -121 -39 -68 -31 -133 -30 -206 3 -172 80 -259 75 -297 -15 -9 -20 -18 -32 -20 -25 -13 36 65 113 115 113 21 0 20 2 -11 30 -19 17 -39 30 -45 30 -6 0 -12 5 -14 11 -3 8 -14 6 -37 -5 -18 -10 -35 -15 -39 -12 -3 3 -11 1 -18 -5 -16 -13 -63 -19 -69 -9 -3 4 2 10 10 14 8 3 15 11 15 17 0 7 -8 5 -20 -6 -20 -18 -21 -18 -43 3 -25 24 -77 46 -77 33 0 -13 26 -32 34 -24 4 4 10 3 14 -3 4 -5 24 -23 44 -38 l37 -28 53 17 c29 9 58 18 65 21 6 3 17 -5 23 -17 10 -17 9 -23 -1 -30 -39 -23 -59 -43 -59 -58 0 -14 2 -14 11 -1 8 11 9 9 4 -10 -9 -32 -55 -113 -62 -107 -2 3 7 23 21 46 45 71 28 68 -19 -3 -43 -65 -115 -153 -115 -139 0 3 -8 -1 -17 -9 -10 -9 -29 -21 -43 -27 l-25 -12 25 18 c57 41 124 112 166 176 49 74 54 98 9 45 -15 -18 -31 -33 -34 -33 -3 -1 -15 -6 -26 -12 -11 -6 -44 -14 -74 -17 -55 -6 -69 -11 -58 -22 4 -4 15 -1 24 7 15 11 15 10 -1 -9 -19 -22 -43 -31 -31 -12 3 6 4 10 2 10 -8 0 -67 -32 -67 -36 0 -3 35 -3 77 0 72 6 80 8 116 43 23 23 35 30 29 17 -12 -22 -51 -61 -157 -153 l-69 -61 -84 0 c-46 0 -104 -5 -130 -12 -46 -12 -46 -12 -17 -19 17 -4 51 -7 78 -8 35 -1 47 -5 47 -16 0 -22 8 -20 115 29 117 53 158 83 211 151 21 28 44 52 50 52 19 0 103 77 104 94 0 18 25 43 53 52 29 11 67 -10 67 -36 0 -15 8 -28 23 -34 30 -14 209 -63 230 -63 10 0 53 16 95 36 69 32 83 36 136 31 39 -4 75 0 107 10 46 15 50 15 69 -2 24 -22 17 -35 -18 -34 -26 1 -27 1 -3 8 21 5 22 8 8 19 -12 10 -18 10 -30 -3 -9 -8 -19 -15 -24 -15 -4 0 -28 -18 -51 -41 -39 -36 -101 -65 -157 -75 -69 -11 -117 -27 -104 -34 11 -7 10 -13 -5 -29 -11 -12 -24 -21 -30 -21 -6 0 0 7 13 16 18 13 20 18 10 25 -22 14 -36 11 -66 -15 -31 -26 -55 -32 -162 -42 -73 -6 -74 -6 -68 16 4 16 1 24 -14 27 -10 3 -19 14 -19 24 0 23 -25 25 -34 3 -8 -21 1 -34 24 -34 21 0 36 -30 19 -41 -16 -10 -69 10 -77 29 -3 9 0 18 6 20 7 2 10 8 7 12 -3 5 -12 7 -19 4 -7 -3 -19 2 -26 11 -15 18 -37 20 -43 3 -8 -24 4 -34 33 -30 28 4 30 2 30 -27 0 -25 6 -34 27 -42 15 -5 38 -7 51 -4 13 3 31 0 39 -6 23 -20 66 -18 93 5 17 14 20 15 11 4 -12 -15 -11 -18 3 -18 9 0 16 6 16 13 0 8 4 7 10 -3 8 -13 10 -12 10 3 0 9 4 17 10 17 6 0 5 -11 -2 -27 -14 -33 -34 -58 -25 -30 8 22 2 22 -31 -1 -24 -16 -206 -102 -217 -102 -2 0 -2 6 1 14 6 16 -11 30 -27 21 -7 -5 -4 -13 7 -26 22 -24 4 -49 -37 -49 -31 0 -41 -19 -11 -22 34 -3 54 2 69 17 8 8 20 12 26 9 8 -5 8 -2 0 7 -7 7 -13 16 -13 20 0 12 38 17 49 6 8 -8 23 0 53 28 25 23 31 27 15 9 -25 -27 -35 -54 -21 -54 3 0 30 12 60 26 44 21 54 30 52 47 -2 17 2 22 19 22 26 1 93 47 75 53 -23 7 -12 41 25 71 21 17 42 31 48 31 5 0 -1 -9 -15 -20 -14 -11 -19 -20 -12 -20 7 0 10 -5 6 -11 -5 -8 -9 -8 -14 1 -5 8 -12 5 -24 -11 -15 -21 -15 -24 -1 -27 8 -2 27 6 41 17 15 12 32 21 38 21 7 0 25 14 41 30 16 17 34 30 39 30 6 -1 -2 -12 -19 -25 -16 -14 -25 -25 -19 -25 13 0 53 41 53 55 1 6 9 11 18 11 10 1 42 11 72 22 37 15 59 18 70 12 10 -6 11 -10 4 -10 -15 0 -18 -20 -3 -20 6 0 48 29 94 64 106 81 146 89 232 50 79 -36 159 -88 214 -138 49 -44 140 -147 140 -158 0 -3 18 -38 40 -76 36 -64 40 -80 50 -182 19 -188 -14 -438 -83 -621 -97 -258 -286 -507 -507 -669 -95 -69 -286 -166 -400 -204 -177 -58 -400 -84 -567 -66 -217 23 -341 58 -528 150 -411 201 -699 590 -782 1055 -21 119 -21 351 0 470 39 218 136 451 257 615 245 333 631 552 1040 589 121 12 144 12 251 1z m519 -491 c0 -10 -7 -19 -15 -19 -16 0 -19 9 -9 34 8 20 24 11 24 -15z m23 -104 c-22 -16 -30 -11 -15 8 7 8 8 18 4 23 -4 4 1 2 11 -5 16 -13 16 -14 0 -26z m-428 -115 c3 0 3 5 0 11 -4 5 8 4 27 -4 18 -8 51 -23 73 -32 39 -17 121 -17 170 -1 11 3 2 -3 -20 -14 -49 -25 -114 -19 -190 15 -33 16 -55 20 -66 15 -11 -7 -23 -3 -38 11 -29 27 -26 32 9 14 16 -8 32 -15 35 -15z m765 -14 c0 -11 -19 -15 -25 -6 -3 5 1 10 9 10 9 0 16 -2 16 -4z m-230 -56 c0 -5 -2 -10 -4 -10 -3 0 -8 5 -11 10 -3 6 -1 10 4 10 6 0 11 -4 11 -10z m-34 -39 c-5 -8 -56 -3 -56 5 0 2 14 4 31 4 16 0 28 -4 25 -9z m-526 -165 c0 -2 -8 -10 -17 -17 -16 -13 -17 -12 -4 4 13 16 21 21 21 13z m-623 -42 c-3 -3 -12 -4 -19 -1 -8 3 -5 6 6 6 11 1 17 -2 13 -5z m607 -63 c3 -4 -3 -16 -14 -26 -19 -17 -19 -17 -7 9 14 29 14 29 21 17z"/> <path d="M1743 2853 c-16 -6 -17 -37 -3 -64 12 -22 40 -25 58 -7 10 10 17 10 33 0 18 -12 19 -11 10 5 -10 19 -46 23 -70 9 -15 -10 -28 1 -15 14 19 19 63 19 86 0 23 -18 23 -19 4 -54 -10 -19 -16 -42 -12 -52 4 -10 1 -21 -6 -26 -8 -5 -9 -11 -3 -15 6 -5 22 -24 37 -44 26 -35 26 -37 8 -42 -26 -7 -37 -52 -17 -72 9 -8 30 -15 47 -15 22 0 31 -4 27 -12 -9 -25 12 -58 37 -58 15 0 25 -7 29 -20 3 -11 13 -23 24 -26 10 -3 33 -12 52 -20 30 -13 33 -14 22 -1 -9 12 -9 16 1 21 7 3 0 2 -16 -1 -23 -5 -27 -3 -20 8 22 35 6 96 -22 85 -9 -3 -14 1 -14 13 0 14 6 17 23 14 30 -6 79 39 70 64 -9 25 -23 33 -57 33 -23 0 -27 3 -18 12 20 20 15 86 -7 98 -35 18 -58 12 -71 -19 l-12 -30 -22 26 c-16 18 -28 24 -40 20 -19 -8 -17 -28 4 -35 8 -3 10 0 5 9 -5 7 6 2 24 -11 33 -23 34 -23 50 -3 18 22 51 37 51 24 0 -5 3 -18 6 -28 5 -15 4 -15 -5 -3 -9 13 -11 13 -11 0 0 -8 4 -29 9 -46 6 -22 5 -31 -3 -31 -8 0 -11 11 -9 26 3 23 2 24 -6 6 -17 -35 -12 -43 29 -47 22 -2 40 1 40 6 0 14 14 -2 16 -19 2 -13 -19 -25 -55 -31 -19 -4 -32 -25 -27 -45 6 -27 -10 -45 -27 -31 -7 7 -17 10 -20 7 -4 -3 -5 -2 -2 1 9 13 -26 63 -46 66 -19 3 -17 5 10 15 30 11 31 11 31 -17 0 -16 5 -32 11 -36 15 -9 32 10 32 39 0 20 4 23 26 20 23 -3 24 -2 6 6 -36 17 -45 13 -45 -24 0 -19 -4 -35 -10 -35 -14 0 -12 64 2 78 18 18 2 14 -34 -8 -18 -11 -42 -20 -53 -19 -11 0 -14 3 -7 6 6 2 9 10 6 15 -4 6 -2 8 4 4 6 -3 22 -1 36 6 l26 11 -27 29 c-14 15 -23 31 -19 35 4 5 21 -7 37 -25 l29 -33 10 26 c13 35 12 56 -2 28 l-11 -22 -28 20 c-31 22 -54 17 -44 -9 5 -13 2 -12 -15 3 -11 10 -20 28 -20 40 0 11 -5 26 -10 31 -7 7 -2 21 15 44 36 49 33 73 -12 92 -45 19 -93 29 -110 21z m187 -268 c0 -1 -7 -8 -15 -15 -13 -10 -15 -9 -15 8 0 15 5 20 15 16 8 -4 15 -7 15 -9z m105 -145 c-3 -5 -2 -10 2 -10 5 0 10 -11 11 -25 2 -25 -15 -31 -30 -10 -14 18 -9 55 8 55 8 0 12 -4 9 -10z"/> <path d="M963 2773 c-18 -7 -16 -33 2 -33 12 0 13 -3 3 -19 -7 -11 -16 -17 -21 -14 -5 3 -4 9 3 13 9 5 9 9 1 14 -6 4 -15 -2 -19 -15 -7 -19 -10 -20 -15 -6 -3 9 -2 19 3 22 17 11 11 25 -10 25 -25 0 -35 -22 -21 -47 22 -38 40 -55 51 -48 9 6 9 10 -1 16 -10 6 -8 9 9 9 12 0 22 5 22 11 0 7 10 9 25 5 14 -4 25 -2 25 4 0 5 -7 10 -15 10 -8 0 -15 5 -15 11 0 5 4 8 9 4 16 -9 24 15 11 30 -13 15 -25 17 -47 8z"/> <path d="M1727 2755 c-4 -8 -1 -17 5 -21 6 -4 -4 -12 -23 -18 -38 -12 -50 -44 -24 -66 8 -7 15 -25 15 -41 0 -29 24 -50 47 -42 7 3 16 -2 19 -11 15 -39 74 1 74 50 0 29 -9 35 -31 21 -23 -14 -36 -3 -19 18 10 13 9 15 -8 15 -11 0 -29 8 -38 18 -17 16 -18 16 -11 -1 4 -10 7 -21 7 -23 0 -2 7 -4 15 -4 8 0 15 -9 15 -20 0 -13 7 -20 20 -20 11 0 20 -4 20 -9 0 -6 -18 -9 -40 -8 -35 1 -38 3 -26 16 13 12 12 17 -10 33 -32 25 -30 40 6 66 33 25 39 47 14 56 -21 8 -21 8 -27 -9z m13 -129 c0 -3 -4 -8 -10 -11 -5 -3 -10 -1 -10 4 0 6 5 11 10 11 6 0 10 -2 10 -4z"/> <path d="M1790 2741 c0 -11 5 -23 10 -26 6 -3 10 3 10 14 0 11 -4 23 -10 26 -5 3 -10 -3 -10 -14z"/> <path d="M1530 2731 c0 -20 27 -48 36 -38 4 3 4 18 0 32 -7 29 -36 34 -36 6z"/> <path d="M1025 2720 c3 -5 1 -19 -5 -30 -9 -17 -14 -19 -25 -10 -11 9 -12 7 -8 -9 4 -17 8 -18 31 -8 51 21 65 67 20 67 -10 0 -16 -4 -13 -10z"/> <path d="M1767 2702 c-9 -2 -15 -8 -12 -13 9 -13 52 -11 61 3 5 7 3 8 -6 3 -7 -4 -15 -3 -19 2 -3 5 -14 7 -24 5z"/> <path d="M965 2660 c3 -5 8 -10 11 -10 2 0 4 5 4 10 0 6 -5 10 -11 10 -5 0 -7 -4 -4 -10z"/> <path d="M1152 2625 c3 -30 1 -36 -19 -41 -12 -3 -27 -12 -33 -19 -9 -11 -5 -17 18 -29 16 -8 32 -22 35 -31 8 -18 33 -20 40 -2 3 9 12 8 35 -4 16 -9 35 -13 42 -9 9 6 6 10 -9 15 -11 3 -21 11 -21 16 0 5 -10 13 -22 18 -17 6 -25 4 -30 -8 -6 -14 -7 -14 -7 1 -1 11 -9 16 -25 15 -14 -1 -25 3 -25 8 0 6 9 10 22 10 17 0 21 5 20 23 -2 12 2 22 7 22 6 0 10 -7 10 -15 0 -8 6 -12 13 -10 6 3 23 -13 36 -35 14 -21 31 -42 39 -45 26 -10 24 2 -4 28 -22 20 -25 29 -16 40 15 18 -8 53 -30 44 -10 -3 -19 3 -27 19 -6 14 -19 24 -32 24 -18 0 -21 -5 -17 -35z"/> <path d="M930 2640 c0 -5 4 -10 9 -10 5 0 18 -3 28 -6 16 -5 16 -4 -1 10 -23 18 -36 20 -36 6z"/> <path d="M1017 2638 c8 -14 10 -19 12 -43 0 -8 6 -15 12 -15 5 0 7 5 3 12 -4 7 -3 8 5 4 25 -16 61 -17 61 -1 0 10 -10 15 -30 15 -23 0 -30 4 -30 20 0 14 -7 20 -21 20 -14 0 -18 -4 -12 -12z"/> <path d="M905 2631 c-8 -15 3 -31 21 -31 11 0 13 -6 9 -19 -4 -14 0 -23 15 -31 14 -7 19 -17 15 -29 -7 -24 16 -54 37 -46 10 4 20 15 23 26 4 10 11 19 16 19 5 0 9 7 9 15 0 21 -16 19 -33 -6 -11 -14 -16 -17 -19 -7 -3 7 2 18 11 25 14 11 13 12 -10 13 -28 0 -41 8 -33 21 2 5 16 4 29 -1 24 -9 25 -8 23 20 -1 16 -6 26 -11 23 -4 -3 -6 -12 -3 -20 3 -8 1 -11 -5 -8 -5 4 -22 8 -36 10 -15 1 -32 10 -39 19 -8 11 -14 13 -19 7z"/> <path d="M640 2569 c0 -24 46 -26 76 -4 22 16 23 16 -33 20 -37 3 -43 0 -43 -16z"/> <path d="M1050 2566 c0 -2 7 -9 15 -16 13 -11 14 -10 9 4 -5 14 -24 23 -24 12z"/> <path d="M1055 2520 c-10 -17 18 -42 38 -34 21 8 22 44 1 44 -9 0 -12 -5 -8 -12 6 -10 4 -10 -8 0 -12 10 -18 10 -23 2z"/> <path d="M1741 2490 c-12 -23 -16 -42 -11 -45 6 -3 10 -15 10 -25 0 -10 9 -21 19 -25 13 -4 17 -12 14 -25 -6 -24 21 -37 42 -20 10 9 15 9 15 1 0 -6 7 -11 15 -11 22 0 18 13 -12 34 -14 11 -23 14 -19 8 3 -6 2 -14 -4 -17 -6 -4 -10 -3 -9 2 2 15 -13 53 -21 53 -16 0 -39 31 -34 45 3 7 15 15 27 17 28 4 31 20 8 35 -17 11 -22 8 -40 -27z"/> <path d="M1493 2503 c-7 -3 -13 -14 -12 -26 0 -12 3 -16 6 -9 7 19 25 14 62 -18 22 -18 32 -34 28 -44 -4 -9 -2 -16 4 -16 6 0 7 -4 4 -10 -3 -5 -1 -10 5 -10 15 0 25 31 13 39 -6 3 -10 17 -9 31 1 21 -3 25 -26 25 -16 -1 -28 5 -28 12 0 15 -30 32 -47 26z"/> <path d="M1817 2503 c-3 -5 -2 -15 3 -23 5 -8 4 -22 -2 -33 -5 -10 -8 -20 -6 -21 2 -1 15 -10 31 -19 15 -10 27 -26 27 -36 0 -14 16 -25 65 -43 36 -12 65 -28 65 -35 0 -19 26 -5 26 15 1 9 4 25 8 34 6 13 3 15 -13 11 -12 -3 -21 -1 -21 5 0 8 -79 42 -99 42 -2 0 8 -14 24 -30 24 -25 30 -28 38 -15 7 13 11 13 32 -2 26 -19 33 -35 13 -28 -7 2 -26 7 -43 9 -41 7 -137 113 -124 137 9 18 -14 48 -24 32z"/> <path d="M1370 2490 c-12 -8 -13 -14 -3 -41 10 -26 10 -34 -2 -46 -22 -22 -18 -27 8 -10 14 9 21 23 19 38 -2 23 -2 23 12 5 8 -10 19 -15 25 -11 14 8 14 -8 2 -20 -6 -6 -1 -14 13 -21 18 -9 31 -7 57 5 19 9 38 17 44 18 5 1 11 6 13 12 2 6 -3 8 -11 5 -10 -3 -17 3 -21 21 -4 15 -12 25 -18 23 -19 -7 -20 -25 -2 -42 20 -20 19 -22 -26 -31 -35 -7 -35 -7 -16 13 24 28 14 56 -17 48 -17 -4 -25 0 -32 16 -12 26 -25 31 -45 18z"/> <path d="M1270 2480 c-12 -8 -9 -15 20 -45 37 -38 38 -39 59 -26 11 7 8 16 -14 45 -28 37 -40 42 -65 26z m35 -10 c3 -6 -1 -7 -9 -4 -18 7 -21 14 -7 14 6 0 13 -4 16 -10z"/> <path d="M1176 2471 c-3 -4 3 -16 13 -25 14 -13 20 -14 23 -4 11 29 -21 54 -36 29z"/> <path d="M1124 2456 c-3 -8 4 -25 15 -37 21 -23 20 -42 -1 -21 -18 18 -28 15 -28 -8 0 -24 26 -26 58 -5 19 14 25 14 54 -1 18 -9 36 -22 40 -28 5 -6 8 -2 8 10 0 34 -34 57 -73 50 -24 -4 -38 -2 -46 8 -8 10 -9 16 -1 21 12 7 4 25 -11 25 -5 0 -12 -7 -15 -14z"/> <path d="M1765 2450 c3 -5 10 -10 16 -10 5 0 9 5 9 10 0 6 -7 10 -16 10 -8 0 -12 -4 -9 -10z"/> <path d="M2237 2414 l-16 -45 22 7 c31 9 45 24 23 24 -14 0 -16 5 -11 30 10 44 2 37 -18 -16z"/> <path d="M1415 2369 c-9 -14 -2 -20 14 -10 8 6 9 11 3 15 -6 3 -14 1 -17 -5z"/> <path d="M960 2356 c0 -10 9 -16 21 -16 24 0 21 23 -4 28 -10 2 -17 -3 -17 -12z"/> <path d="M1260 2325 c0 -8 7 -15 15 -15 8 0 24 -6 35 -12 15 -10 22 -10 31 -1 15 15 4 43 -17 43 -10 0 -14 -5 -10 -15 3 -8 1 -15 -3 -15 -5 0 -11 7 -15 15 -3 8 -12 15 -21 15 -8 0 -15 -7 -15 -15z"/> <path d="M2047 2326 c-4 -10 -1 -13 8 -9 8 3 12 9 9 14 -7 12 -11 11 -17 -5z"/> <path d="M667 2323 c-16 -15 -5 -43 25 -67 28 -21 30 -26 15 -32 -23 -8 -22 -41 2 -53 10 -6 21 -8 24 -5 6 7 48 -16 63 -35 6 -8 16 -11 21 -8 6 4 13 0 17 -8 5 -15 35 -21 37 -7 6 33 5 52 -2 52 -5 0 -9 4 -9 9 0 5 13 9 29 9 15 -1 33 2 40 6 8 5 8 1 -1 -18 -6 -14 -17 -26 -25 -26 -7 0 -13 -4 -13 -10 0 -10 13 -14 35 -11 6 0 15 -9 20 -22 13 -30 42 -34 50 -7 5 15 12 19 23 15 10 -4 24 -7 32 -6 8 1 27 1 43 1 15 0 51 12 80 27 l52 28 -90 5 c-74 4 -89 8 -86 20 12 46 7 55 -32 55 -26 0 -42 6 -48 18 -13 22 -48 22 -56 1 -3 -9 -1 -25 6 -36 9 -15 9 -20 -3 -24 -20 -8 -36 3 -36 26 0 11 -12 24 -30 32 -18 8 -28 18 -25 26 7 20 -12 51 -30 48 -9 -1 -24 -9 -34 -18 -17 -14 -20 -14 -35 3 -16 19 -47 25 -59 12z m43 -33 c0 -5 -2 -10 -4 -10 -3 0 -8 5 -11 10 -3 6 -1 10 4 10 6 0 11 -4 11 -10z m85 -18 c-2 -9 -4 -19 -4 -22 -1 -3 -17 -17 -36 -33 -26 -21 -33 -23 -28 -10 4 10 13 22 20 26 11 7 9 13 -9 28 -18 17 -19 20 -5 15 10 -3 25 1 34 9 18 18 32 12 28 -13z m11 -37 c-6 -17 19 -21 29 -5 10 16 25 1 25 -24 0 -35 -22 -49 -48 -30 -20 13 -21 13 -16 -1 3 -8 12 -16 20 -16 8 -1 19 -2 26 -3 6 0 13 -7 16 -15 6 -17 -34 -6 -63 18 -10 9 -25 21 -31 26 -9 8 -6 17 14 36 32 32 36 34 28 14z m190 -40 c8 10 17 16 21 12 3 -4 -1 -15 -11 -26 -15 -16 -15 -19 -1 -24 14 -6 14 -8 -1 -25 -18 -22 -56 -18 -47 4 6 17 20 18 26 2 2 -8 3 -6 3 2 -1 10 -11 14 -31 12 -27 -2 -28 -1 -13 11 11 9 15 22 11 38 l-5 24 17 -24 c17 -23 19 -23 31 -6z m75 -59 c4 -5 21 -4 39 3 18 6 42 11 54 10 16 -1 14 -3 -9 -11 -41 -13 -149 -18 -136 -5 5 5 7 16 4 24 -5 13 -3 13 18 1 13 -7 27 -17 30 -22z"/> <path d="M765 2271 c-3 -5 -1 -12 5 -16 5 -3 10 1 10 9 0 18 -6 21 -15 7z"/> <path d="M820 2190 c0 -5 5 -10 10 -10 6 0 10 5 10 10 0 6 -4 10 -10 10 -5 0 -10 -4 -10 -10z"/> <path d="M437 2313 c-4 -3 -7 -15 -7 -25 0 -11 -4 -17 -9 -14 -16 10 -41 -5 -41 -25 0 -11 6 -22 14 -25 8 -3 17 -22 21 -42 7 -37 41 -82 63 -82 6 0 12 -10 12 -21 0 -18 4 -21 29 -16 15 3 33 1 39 -5 16 -16 42 -2 42 23 0 13 5 19 13 15 6 -3 31 -11 55 -18 24 -7 66 -31 93 -54 34 -30 55 -41 71 -38 21 4 21 4 -2 -6 -18 -8 -43 -8 -91 1 -37 6 -100 10 -141 7 -68 -4 -75 -3 -71 12 6 22 -15 36 -30 21 -8 -8 -8 -11 1 -11 7 0 12 -10 11 -22 0 -22 -1 -22 -9 -3 -5 11 -9 14 -9 8 -1 -7 -12 -15 -26 -19 -14 -3 -25 -12 -25 -20 0 -16 32 -19 58 -5 9 4 43 11 75 14 52 5 57 4 57 -14 0 -10 5 -19 11 -19 6 0 8 9 4 22 -6 18 -4 20 11 14 93 -36 191 -44 264 -22 39 11 42 14 22 20 -12 4 -26 4 -32 1 -5 -3 -10 -1 -10 4 0 6 -4 11 -10 11 -5 0 -37 20 -72 44 -63 44 -179 106 -197 106 -6 0 -17 -12 -25 -27 -14 -26 -15 -27 -16 -5 0 12 -4 22 -9 22 -5 0 -7 -10 -4 -22 4 -21 3 -22 -10 -6 -10 13 -17 14 -25 6 -6 -6 -15 -8 -19 -4 -4 4 0 12 9 17 13 7 15 15 7 42 -11 40 -11 47 1 47 6 0 10 -9 10 -21 0 -11 4 -18 9 -15 5 4 7 -4 3 -16 -5 -21 -4 -22 11 -9 10 7 17 9 17 3 0 -14 33 -8 38 6 2 6 -8 14 -22 18 -15 3 -26 14 -28 26 -4 29 -36 48 -47 29 -5 -8 -15 -11 -23 -8 -8 3 -21 1 -29 -5 -11 -8 -10 -9 3 -4 25 8 52 -36 44 -69 -12 -48 -50 -22 -65 46 -6 24 -18 49 -27 56 -16 12 -16 13 5 13 12 0 19 -4 16 -10 -3 -5 -1 -10 5 -10 6 0 8 10 4 25 -4 15 -2 25 5 25 6 0 11 -11 11 -25 0 -18 5 -25 19 -25 21 0 31 19 31 57 0 20 -4 24 -20 20 -11 -3 -23 -1 -26 4 -6 11 -28 12 -37 2z m50 -55 c-3 -8 -6 -5 -6 6 -1 11 2 17 5 13 3 -3 4 -12 1 -19z m386 -305 c-13 -2 -35 -2 -50 0 -16 2 -5 4 22 4 28 0 40 -2 28 -4z"/> <path d="M2051 2288 c-6 -10 -19 -18 -29 -19 -9 0 -39 -11 -67 -24 -75 -35 -23 -29 71 8 74 30 80 33 59 43 -18 9 -24 7 -34 -8z"/> <path d="M1554 2246 c-10 -8 -15 -18 -11 -22 4 -5 12 -2 16 5 7 11 15 11 42 2 37 -13 47 -8 29 14 -16 19 -50 19 -76 1z"/> <path d="M2183 2253 c9 -2 23 -2 30 0 6 3 -1 5 -18 5 -16 0 -22 -2 -12 -5z"/> <path d="M2378 2233 c7 -3 16 -2 19 1 4 3 -2 6 -13 5 -11 0 -14 -3 -6 -6z"/> <path d="M2110 2071 c-48 -15 -85 -40 -131 -88 -44 -45 -98 -133 -83 -133 4 0 35 26 68 58 34 32 74 67 91 79 16 12 27 24 24 27 -9 10 -83 -43 -106 -77 -13 -17 -23 -26 -23 -20 0 33 107 122 129 108 5 -2 25 2 45 10 24 10 34 20 30 30 -7 17 -8 17 -44 6z"/> <path d="M2148 2024 c-5 -4 -8 -179 -8 -390 0 -412 2 -394 -51 -394 -12 0 -19 -7 -19 -20 0 -11 -6 -20 -13 -20 -21 0 -90 -40 -124 -73 -71 -67 -82 -181 -26 -260 30 -41 128 -111 144 -102 4 3 9 -5 11 -17 2 -17 13 -25 41 -32 34 -9 37 -13 37 -43 0 -19 -9 -46 -19 -61 -16 -23 -18 -37 -11 -102 l7 -75 2 85 c1 55 4 80 10 71 8 -12 13 -12 24 -3 19 16 26 -9 28 -93 l2 -60 7 45 c8 50 -1 99 -24 135 -9 13 -16 39 -16 58 0 30 3 34 38 43 23 6 41 17 47 32 5 12 13 22 16 22 3 0 31 17 62 37 98 64 134 172 87 262 -23 47 -95 110 -132 118 -16 3 -25 10 -22 18 7 17 -34 45 -66 45 l-25 0 3 252 c3 320 -1 532 -10 522z m50 -790 c12 -4 22 -10 22 -15 0 -5 -10 -4 -23 2 -15 7 -30 7 -47 -1 l-25 -10 26 5 c31 6 115 -36 139 -68 38 -54 55 -200 29 -249 -9 -16 -7 -20 11 -25 25 -7 21 -29 -5 -26 -10 1 -27 -9 -37 -22 -10 -13 -34 -33 -53 -45 -21 -13 -32 -26 -28 -36 3 -9 -2 -14 -18 -15 -51 -3 -84 2 -94 15 -5 7 -28 24 -51 38 -22 15 -47 40 -54 57 -10 25 -16 29 -30 21 -23 -12 -44 8 -28 27 7 9 14 10 23 3 9 -7 11 7 7 60 -7 123 19 186 104 245 16 11 32 19 37 17 4 -1 7 2 7 7 0 16 50 25 88 15z m-233 -124 c-8 -13 -15 -45 -22 -107 -4 -38 -10 -53 -24 -56 -11 -3 -20 1 -23 12 -4 15 -2 63 4 69 1 1 3 5 5 10 8 31 27 62 42 71 23 13 26 13 18 1z m412 -50 c18 -38 24 -75 17 -108 -5 -24 -10 -29 -28 -25 -19 4 -19 3 -3 -7 20 -13 23 -40 4 -40 -24 0 -37 21 -25 43 10 20 6 132 -7 177 -8 25 -8 25 11 5 11 -11 24 -31 31 -45z m-427 -134 c0 -13 -20 -26 -41 -26 -14 0 -11 28 4 33 23 10 37 7 37 -7z"/> <path d="M2090 1190 c0 -5 -6 -10 -13 -10 -17 0 -50 -36 -71 -78 -9 -18 -20 -62 -23 -99 l-6 -66 24 16 c13 9 35 18 49 18 23 1 23 2 -5 8 -17 4 -33 2 -38 -4 -16 -20 6 110 23 138 10 16 34 39 53 52 l35 24 4 -31 c3 -17 6 -65 7 -107 3 -91 21 -123 21 -36 0 32 -5 87 -11 122 -9 51 -15 63 -30 63 -10 0 -19 -4 -19 -10z"/> <path d="M2155 1178 c13 -58 25 -158 25 -209 l0 -56 45 -6 c51 -5 60 -10 50 -27 -4 -7 -22 -10 -41 -8 -19 2 -34 0 -34 -4 0 -4 9 -8 19 -8 31 0 32 -14 5 -43 -37 -40 -48 -35 -41 18 4 24 3 46 -2 49 -4 3 -11 -22 -15 -56 -3 -33 -10 -66 -15 -72 -7 -8 -2 -12 17 -13 23 -1 24 0 7 6 -18 7 -16 10 15 26 19 10 43 27 53 39 18 20 60 95 55 97 -2 0 -12 2 -23 4 -11 2 -35 7 -52 10 -41 7 -45 35 -5 36 l27 1 -27 11 c-24 9 -28 17 -29 51 0 23 -2 52 -4 66 -17 104 -17 102 6 89 51 -27 99 -109 85 -145 -3 -8 -1 -12 4 -9 5 3 9 -9 8 -29 -1 -28 -5 -34 -20 -31 -10 2 -18 0 -18 -6 0 -5 9 -9 20 -9 11 0 20 -5 20 -11 0 -5 5 -7 11 -3 14 8 5 89 -17 156 -17 54 -74 108 -111 108 -19 0 -22 -4 -18 -22z"/> <path d="M2088 973 c6 -2 18 -2 25 0 6 3 1 5 -13 5 -14 0 -19 -2 -12 -5z"/> <path d="M2063 932 c-65 -2 -73 -5 -73 -22 0 -11 5 -20 10 -20 6 0 9 6 8 13 -5 20 128 23 135 2 4 -8 2 -15 -3 -15 -6 0 -10 -15 -10 -32 0 -43 -10 -78 -21 -78 -17 0 -84 68 -76 76 5 5 26 9 48 9 21 0 39 3 39 7 0 5 -27 8 -60 8 l-61 0 15 -27 c32 -62 118 -114 122 -75 0 4 4 32 9 62 11 73 11 93 0 95 -6 0 -43 -1 -82 -3z"/> <path d="M444 2009 c-3 -6 -2 -15 2 -19 12 -12 38 5 30 19 -9 14 -23 14 -32 0z"/> <path d="M1415 1997 c-24 -19 -13 -47 19 -47 34 0 42 18 19 41 -16 17 -21 17 -38 6z"/> <path d="M1472 1998 c2 -6 10 -14 16 -16 7 -2 10 2 6 12 -7 18 -28 22 -22 4z"/> <path d="M1312 1726 l5 -266 -29 0 c-23 0 -28 -4 -28 -25 0 -17 -4 -23 -15 -19 -22 9 -87 -33 -114 -72 -61 -89 -24 -206 82 -257 40 -20 48 -13 14 13 -14 11 -28 29 -32 39 -4 13 -12 17 -27 13 -15 -4 -19 -1 -16 9 3 8 11 13 17 12 6 -2 11 4 11 12 0 17 -16 20 -25 5 -9 -14 -27 -1 -21 15 3 8 1 28 -4 45 -6 21 -5 28 2 24 6 -4 9 -1 6 7 -5 12 17 69 26 69 2 0 2 -10 0 -22 -9 -67 -11 -118 -3 -118 5 0 9 17 9 38 0 20 5 54 11 74 11 42 53 97 65 86 4 -5 -1 -17 -10 -27 -23 -26 -45 -87 -46 -128 0 -38 -2 -37 41 -18 34 14 34 14 7 15 -23 0 -28 5 -28 24 0 52 50 133 73 119 6 -3 7 -1 3 5 -4 7 -3 12 3 12 15 0 21 -36 19 -108 -2 -34 0 -62 5 -62 4 0 7 -7 7 -15 0 -12 -13 -15 -60 -15 -68 0 -72 -7 -41 -68 17 -34 65 -72 89 -72 6 0 12 22 14 49 l3 49 -55 -2 c-41 -1 -55 3 -55 13 0 19 81 27 102 9 15 -12 16 -2 11 97 -7 128 -13 148 -39 140 -29 -10 -22 3 11 20 l30 16 0 259 c0 182 -3 261 -11 266 -9 5 -11 -62 -7 -260z m-2 -596 c0 -11 -5 -20 -11 -20 -5 0 -7 -4 -4 -10 17 -27 -28 0 -54 33 -12 16 -10 17 28 17 34 0 41 -3 41 -20z"/> <path d="M551 1936 c-14 -17 0 -29 23 -20 9 3 16 1 16 -5 0 -6 9 -11 20 -11 11 0 20 7 20 15 0 8 -9 15 -21 15 -11 0 -17 5 -14 10 3 6 1 10 -4 10 -6 0 -11 -6 -11 -12 0 -10 -2 -10 -9 0 -6 10 -10 10 -20 -2z"/> <path d="M1155 1904 c-49 -24 -115 -51 -145 -60 -30 -10 -59 -21 -65 -25 -5 -4 -37 -12 -70 -18 -33 -6 -61 -16 -63 -21 -2 -6 -16 -10 -30 -10 -15 0 -46 -9 -69 -19 -23 -11 -44 -17 -47 -13 -3 3 -6 0 -6 -6 0 -6 -7 -9 -16 -5 -11 4 -12 8 -4 13 7 4 9 13 6 19 -12 19 -22 12 -22 -15 1 -22 -6 -28 -51 -44 -52 -18 -53 -18 -53 1 0 23 -29 37 -40 19 -4 -7 -16 -9 -28 -6 -13 4 -22 1 -26 -9 -9 -25 4 -46 25 -40 25 8 37 -21 20 -47 -9 -14 -9 -23 -1 -33 16 -20 -3 -26 -32 -11 -22 12 -27 11 -39 -5 -16 -23 -29 -24 -29 -4 0 17 -16 20 -25 5 -3 -5 -1 -10 4 -10 6 0 11 -4 11 -10 0 -5 -10 -9 -22 -7 -27 3 -37 -28 -12 -37 11 -4 31 3 53 18 23 16 44 23 57 20 12 -3 25 -1 29 6 5 8 12 7 25 -5 38 -35 80 6 46 44 -15 16 -14 19 9 29 14 6 25 16 25 22 0 5 7 10 16 10 8 0 50 14 92 32 42 18 83 31 91 30 7 -2 10 1 7 6 -8 13 25 21 49 11 17 -7 16 -8 -7 -8 -35 -1 -59 -39 -34 -53 26 -15 18 -28 -16 -29 -18 0 -27 -3 -20 -6 6 -2 12 -13 12 -22 0 -13 -8 -18 -31 -19 -18 0 -37 -6 -43 -13 -8 -9 -7 -10 7 -6 9 4 17 2 17 -3 0 -6 -5 -10 -11 -10 -7 0 -10 -13 -7 -34 2 -21 0 -34 -7 -33 -5 1 -9 -3 -8 -9 3 -15 -42 -38 -61 -31 -22 9 -8 47 18 47 30 0 44 12 37 32 -4 13 -10 15 -21 8 -13 -9 -13 -10 0 -10 13 0 13 -1 0 -10 -22 -14 -30 -12 -30 9 0 11 9 23 20 26 16 5 19 12 14 28 -3 12 -3 19 1 15 12 -11 35 11 35 33 0 12 7 19 20 19 10 0 25 10 31 22 12 22 12 22 -14 5 -15 -9 -33 -17 -42 -17 -8 0 -15 -6 -15 -14 0 -8 -10 -16 -22 -18 -17 -2 -23 -10 -23 -28 0 -15 -7 -28 -19 -33 -15 -6 -17 -14 -12 -41 5 -25 3 -35 -9 -40 -8 -3 -15 -17 -15 -32 0 -23 3 -25 24 -20 15 4 26 1 29 -7 3 -9 7 -9 20 1 9 8 21 11 27 7 5 -3 13 2 17 12 4 10 13 23 21 29 10 7 13 21 10 38 -4 19 -1 29 9 33 25 10 65 51 59 61 -3 6 1 12 9 16 8 3 15 13 15 23 1 34 58 84 117 101 43 12 60 23 77 49 16 25 34 37 76 49 71 21 119 46 149 78 14 14 23 26 20 25 -2 0 -44 -20 -94 -45z m-190 -124 c-3 -5 -24 -10 -46 -10 -24 0 -38 4 -34 10 3 6 24 10 46 10 24 0 38 -4 34 -10z m-85 -28 c0 -4 -21 -6 -47 -4 -76 5 -83 10 -15 11 34 0 62 -2 62 -7z m-161 -16 c-17 -15 -120 -76 -115 -67 4 6 6 11 4 11 -8 0 -97 -48 -95 -52 2 -3 -13 13 -45 51 -10 12 -9 14 4 8 9 -3 19 -1 22 6 2 7 5 0 5 -15 1 -18 6 -28 16 -28 8 0 15 5 15 11 0 5 5 7 10 4 6 -3 10 -1 10 5 0 6 6 10 13 8 6 -2 27 8 44 20 18 13 37 20 43 17 5 -3 20 1 32 9 19 14 49 23 37 12z m-213 -141 c9 -37 -2 -41 -14 -6 -7 18 -7 31 -2 31 5 0 12 -11 16 -25z"/> <path d="M619 1693 c-13 -15 -12 -15 9 -4 23 12 28 21 13 21 -5 0 -15 -7 -22 -17z"/> <path d="M1465 1932 c-5 -15 19 -27 35 -17 5 3 10 12 10 18 0 17 -38 16 -45 -1z"/> <path d="M1535 1921 c-3 -6 10 -17 28 -26 26 -12 40 -13 62 -5 22 8 26 13 16 23 -9 9 -14 9 -20 -2 -10 -15 -61 -8 -61 9 0 13 -17 13 -25 1z"/> <path d="M306 1905 c-4 -12 -1 -16 11 -13 18 3 21 20 5 26 -5 1 -12 -4 -16 -13z"/> <path d="M1872 1888 c-30 -31 -32 -31 -45 -14 -13 18 -14 18 -19 -2 -4 -15 -2 -19 8 -15 8 3 14 -1 14 -11 0 -9 7 -16 15 -16 17 0 21 -19 5 -21 -5 -1 -14 -2 -19 -3 -5 0 -13 -5 -18 -10 -5 -5 -3 -6 5 -2 6 4 12 2 12 -3 0 -6 6 -11 14 -11 13 0 41 55 37 74 -1 4 6 19 14 33 24 37 13 37 -23 1z"/> <path d="M980 1865 c-13 -14 -21 -25 -17 -25 14 0 77 34 77 42 0 17 -38 7 -60 -17z"/> <path d="M1776 1845 c4 -8 8 -15 10 -15 2 0 4 7 4 15 0 8 -4 15 -10 15 -5 0 -7 -7 -4 -15z"/> <path d="M1420 1826 c0 -24 15 -26 28 -5 11 16 9 19 -8 19 -11 0 -20 -6 -20 -14z"/> <path d="M1742 1835 c4 -5 3 -14 -2 -20 -12 -15 -2 -47 13 -42 17 5 14 60 -3 65 -8 3 -12 1 -8 -3z"/> <path d="M1805 1830 c-3 -5 -1 -10 4 -10 6 0 11 5 11 10 0 6 -2 10 -4 10 -3 0 -8 -4 -11 -10z"/> <path d="M1037 1770 c-4 -30 -7 -238 -7 -462 l0 -408 -29 0 c-16 0 -34 -6 -40 -13 -17 -22 -1 -28 30 -12 15 8 36 15 46 14 16 0 16 -1 -2 -9 -17 -7 -14 -9 13 -9 49 -1 114 -44 142 -93 17 -31 25 -63 28 -119 3 -54 9 -79 18 -83 10 -4 13 1 10 17 -3 12 -8 49 -11 81 -4 33 -9 65 -12 73 -3 7 2 13 12 13 9 0 14 -4 11 -9 -3 -4 3 -19 14 -31 22 -25 29 -123 10 -135 -6 -4 -8 -15 -5 -25 9 -27 -11 -34 -34 -11 -16 16 -20 17 -25 4 -8 -20 -8 -20 15 -26 13 -3 18 -10 14 -17 -4 -7 -16 -9 -27 -7 -13 4 -22 -2 -30 -19 -10 -21 -53 -55 -98 -76 -12 -5 -10 -7 5 -7 39 -2 -8 -21 -52 -21 -31 0 -45 5 -52 18 -5 10 -26 27 -46 38 -25 13 -43 34 -60 71 -14 28 -25 57 -25 63 0 7 -8 5 -22 -4 -32 -22 -41 -20 -34 9 4 16 2 25 -5 25 -8 0 -10 17 -5 56 6 49 25 107 26 79 0 -5 6 1 13 14 6 14 18 26 25 29 12 4 12 0 1 -19 -7 -13 -14 -33 -15 -44 -7 -72 -7 -120 1 -120 6 0 12 32 16 71 6 83 34 143 75 164 23 11 25 15 11 18 -21 4 -93 -36 -124 -70 -50 -54 -69 -164 -38 -224 24 -47 83 -101 130 -121 29 -12 45 -25 47 -38 2 -14 13 -21 37 -25 32 -5 34 -8 34 -42 0 -20 -7 -48 -16 -62 -19 -28 -20 -51 -6 -81 7 -15 8 -10 4 21 -5 40 -4 41 25 41 26 0 30 -5 39 -41 8 -37 9 -38 10 -11 0 17 -8 44 -19 60 -12 18 -20 47 -20 72 0 40 1 42 33 45 21 2 35 10 41 24 5 12 26 30 45 40 92 48 151 125 151 198 0 81 -59 167 -140 202 -22 10 -37 21 -34 26 9 15 -28 37 -62 38 l-30 0 4 438 c4 446 2 532 -11 432z m68 -890 c7 -12 -2 -12 -30 0 -19 8 -19 9 2 9 12 1 25 -3 28 -9z m-251 -345 c3 -9 -1 -18 -10 -22 -19 -7 -39 11 -30 26 10 16 33 13 40 -4z"/> <path d="M1450 1801 c0 -6 5 -13 10 -16 6 -3 10 1 10 9 0 9 -4 16 -10 16 -5 0 -10 -4 -10 -9z"/> <path d="M1370 1780 c0 -13 7 -20 18 -20 11 0 18 7 18 20 0 13 -7 20 -18 20 -11 0 -18 -7 -18 -20z"/> <path d="M577 1784 c-12 -12 -8 -24 9 -24 8 0 13 -4 9 -9 -3 -5 -1 -13 5 -16 7 -4 10 3 7 21 -4 28 -17 40 -30 28z"/> <path d="M1425 1780 c3 -5 8 -10 11 -10 2 0 4 5 4 10 0 6 -5 10 -11 10 -5 0 -7 -4 -4 -10z"/> <path d="M1581 1767 c-6 -8 -9 -16 -6 -18 2 -3 -5 -10 -15 -17 -12 -7 -20 -8 -20 -2 0 5 -9 10 -20 10 -11 0 -20 -3 -20 -8 0 -13 41 -33 53 -25 7 4 21 8 32 8 15 0 20 7 21 33 2 34 -7 40 -25 19z"/> <path d="M1770 1761 c0 -23 -10 -27 -27 -10 -6 6 -23 9 -39 7 -25 -3 -29 -8 -32 -39 -2 -23 2 -40 13 -49 14 -12 14 -14 -1 -31 -21 -23 -11 -71 19 -84 15 -7 22 -18 22 -37 -1 -17 5 -28 12 -28 22 0 27 29 8 50 -17 19 -13 40 8 40 7 0 18 -9 25 -20 7 -11 23 -20 37 -20 34 0 49 36 29 67 -19 30 -18 33 12 33 41 0 64 18 64 49 0 30 -14 41 -55 41 -17 0 -25 6 -27 23 -2 17 -11 23 -35 25 -28 3 -33 0 -33 -17z m52 -9 c-17 -5 21 -43 46 -45 25 -2 36 -22 19 -35 -7 -5 -27 -16 -45 -25 -29 -14 -33 -14 -28 -2 3 9 0 15 -9 15 -11 0 -12 -6 -6 -22 5 -13 14 -22 20 -20 12 2 14 -9 5 -32 -3 -9 -12 -16 -18 -16 -19 0 -59 47 -47 54 5 4 14 -2 20 -11 11 -19 15 -4 5 21 -5 14 -8 14 -31 -1 -15 -10 -20 -19 -13 -23 7 -4 3 -13 -10 -25 -25 -23 -45 -8 -35 25 4 12 9 19 12 17 2 -3 16 4 29 16 23 20 18 37 -11 37 -5 0 -4 -4 4 -9 9 -6 10 -11 2 -15 -7 -5 -17 6 -26 26 -12 29 -12 34 2 45 12 9 19 10 24 2 3 -6 9 -10 13 -10 20 3 26 0 21 -9 -4 -6 -12 -7 -18 -3 -7 4 -6 0 2 -10 19 -24 31 -21 31 8 0 14 5 25 11 25 7 0 9 -10 7 -25 -5 -22 -2 -25 26 -25 23 0 27 3 16 9 -8 6 -18 7 -22 5 -4 -3 -8 4 -8 16 0 11 -7 23 -15 26 -12 5 -13 10 -5 20 7 7 19 10 28 7 10 -4 11 -8 4 -11z"/> <path d="M517 1756 c-3 -8 2 -21 12 -30 22 -20 37 -21 21 -1 -7 9 -10 18 -6 22 3 4 13 -2 21 -13 8 -10 15 -14 15 -8 0 13 -33 44 -47 44 -6 0 -13 -6 -16 -14z"/> <path d="M1365 1730 c-8 -14 3 -30 21 -30 8 0 14 -9 14 -19 0 -34 20 -34 51 0 17 20 29 27 29 18 0 -8 -5 -20 -12 -27 -9 -9 -7 -12 10 -12 26 0 30 31 6 51 -14 11 -18 11 -29 -5 -18 -24 -50 -17 -49 12 1 23 -29 32 -41 12z"/> <path d="M1418 1713 c7 -3 16 -2 19 1 4 3 -2 6 -13 5 -11 0 -14 -3 -6 -6z"/> <path d="M380 1680 c0 -5 -9 -10 -20 -10 -15 0 -20 -7 -20 -26 0 -23 4 -26 25 -22 13 3 26 0 29 -6 3 -7 5 -7 5 1 1 6 -3 15 -9 18 -16 10 -12 25 5 19 8 -4 15 -13 15 -21 0 -13 3 -13 15 -3 13 11 12 16 -10 36 -29 26 -35 29 -35 14z"/> <path d="M1547 1683 c-9 -8 -9 -48 -1 -56 4 -3 13 1 21 9 20 19 30 10 13 -11 -9 -11 -10 -19 -3 -26 7 -7 13 -2 17 17 l7 27 19 -29 c18 -29 18 -29 -3 -48 l-22 -19 25 7 c14 4 31 8 38 8 15 2 15 -2 -4 39 -32 65 -84 106 -107 82z"/> <path d="M437 1616 c-14 -11 -15 -15 -3 -19 8 -3 16 2 19 14 3 10 4 19 4 19 -1 0 -10 -7 -20 -14z"/> <path d="M309 1615 c-5 -25 -1 -49 9 -53 7 -2 12 3 12 12 0 9 7 16 15 16 8 0 15 5 15 12 0 6 -3 8 -6 5 -4 -3 -15 -2 -25 4 -11 5 -19 7 -20 4z"/> <path d="M735 1610 c3 -5 8 -10 11 -10 2 0 4 5 4 10 0 6 -5 10 -11 10 -5 0 -7 -4 -4 -10z"/> <path d="M1518 1603 c-22 -5 -23 -36 -4 -53 8 -6 16 -26 18 -43 4 -39 35 -48 75 -22 25 17 26 17 21 -1 -3 -11 -9 -27 -13 -38 -6 -14 -4 -17 11 -14 29 5 31 59 3 76 -11 8 -18 9 -14 3 3 -6 1 -11 -4 -11 -6 0 -11 10 -11 23 -1 20 -2 20 -11 4 -5 -9 -7 -22 -4 -27 10 -17 -11 -11 -28 8 -17 18 -20 82 -5 82 5 0 6 5 3 10 -6 10 -9 11 -37 3z"/> <path d="M1566 1558 c-15 -21 -13 -38 4 -38 5 0 7 7 4 15 -4 8 -1 22 6 30 7 8 10 15 7 15 -3 0 -13 -10 -21 -22z"/> <path d="M1645 1529 c-9 -14 -2 -20 14 -10 8 6 9 11 3 15 -6 3 -14 1 -17 -5z"/> <path d="M1686 1525 c4 -8 13 -15 21 -15 13 0 13 3 3 15 -7 8 -16 15 -21 15 -5 0 -6 -7 -3 -15z"/> <path d="M1665 1500 c-3 -6 -1 -10 5 -10 7 0 9 -8 5 -20 -8 -25 11 -27 24 -2 7 14 5 21 -9 30 -12 7 -21 8 -25 2z"/> <path d="M1344 1461 c4 -5 0 -12 -6 -14 -7 -3 -2 -6 11 -6 30 -1 87 -44 105 -79 21 -41 29 -114 17 -157 -9 -32 -8 -40 7 -52 16 -13 15 -14 -5 -8 -16 4 -23 1 -28 -14 -3 -11 -22 -30 -41 -41 -19 -12 -32 -25 -29 -30 6 -9 -18 -20 -46 -20 -11 0 -31 8 -45 17 -25 16 -26 16 -23 -3 3 -12 14 -20 32 -22 23 -3 27 -8 27 -33 0 -16 -6 -40 -14 -52 -11 -16 -13 -39 -8 -87 6 -64 6 -64 13 -25 4 22 8 51 8 65 1 20 -1 22 -9 10 -8 -13 -10 -12 -10 3 0 10 8 17 20 17 17 0 18 5 13 49 -6 49 -5 49 23 53 18 2 33 11 39 25 5 12 20 25 33 28 13 3 43 25 67 49 48 48 62 91 51 152 -8 41 -64 106 -106 124 -17 7 -30 18 -30 25 0 6 -11 17 -25 23 -31 14 -48 15 -41 3z m172 -161 c15 -35 12 -86 -4 -82 -9 1 -11 -5 -6 -23 4 -18 2 -25 -8 -25 -12 0 -14 49 -8 170 0 9 16 -16 26 -40z"/> <path d="M1335 1413 c3 -10 9 -54 12 -99 l6 -80 34 -1 c18 -1 40 -7 48 -13 13 -11 15 -5 15 39 0 69 -25 126 -65 151 -40 25 -59 26 -50 3z m77 -61 c23 -47 31 -112 15 -112 -44 1 -55 12 -62 63 -4 29 -9 64 -11 79 -4 26 -2 27 18 17 13 -5 31 -27 40 -47z"/> <path d="M1562 1348 c4 -32 49 -52 82 -37 28 13 37 46 10 35 -8 -3 -31 1 -51 9 -45 19 -45 19 -41 -7z"/> <path d="M422 1314 c-40 -28 -66 -104 -35 -104 19 0 93 79 93 99 0 25 -26 28 -58 5z m18 -27 c0 -2 -10 -12 -21 -23 -22 -19 -22 -19 -10 4 10 18 31 31 31 19z"/> <path d="M1350 1200 c0 -13 5 -18 15 -14 22 9 67 -5 62 -19 -2 -7 -9 -12 -14 -12 -6 0 -15 -4 -20 -9 -5 -5 -3 -6 5 -2 23 14 12 -14 -13 -30 -31 -20 -39 -15 -26 19 7 17 7 28 1 32 -6 4 -12 0 -14 -7 -6 -18 -13 -88 -8 -88 20 0 66 39 87 73 31 54 31 57 1 57 -14 0 -36 4 -50 10 -22 8 -26 7 -26 -10z"/> <path d="M1328 1053 c6 -2 18 -2 25 0 6 3 1 5 -13 5 -14 0 -19 -2 -12 -5z"/> <path d="M688 944 c-27 -14 -40 -54 -18 -54 22 0 60 33 60 51 0 23 -6 23 -42 3z"/> <path d="M1347 879 c-6 -52 -3 -69 13 -69 8 0 5 108 -3 117 -2 2 -7 -20 -10 -48z"/> <path d="M1331 894 c0 -11 3 -14 6 -6 3 7 2 16 -1 19 -3 4 -6 -2 -5 -13z"/> <path d="M963 835 c-85 -51 -119 -200 -70 -308 25 -54 79 -107 110 -107 11 0 18 14 24 48 11 68 12 66 -29 69 -21 2 -38 -1 -38 -7 0 -5 14 -10 31 -10 30 0 31 -2 25 -31 -3 -17 -6 -38 -6 -46 0 -11 -4 -11 -22 -2 -57 29 -87 78 -50 80 9 1 4 4 -13 8 -16 3 -31 14 -33 23 -3 13 8 18 51 23 30 4 65 4 77 0 16 -5 21 -3 18 6 -4 12 -51 14 -132 6 -33 -3 -29 22 6 32 31 9 32 9 6 10 -25 1 -52 21 -28 21 6 0 8 10 4 24 -12 47 60 164 102 166 6 0 14 -27 18 -61 10 -99 8 -131 -11 -144 -15 -11 -14 -12 10 -12 26 0 27 2 27 49 0 57 -20 188 -29 188 -3 0 -25 -11 -48 -25z"/> <path d="M1044 828 c4 -18 12 -74 18 -124 9 -73 14 -91 25 -87 8 3 10 9 5 12 -5 3 -12 38 -16 76 -4 39 -9 85 -12 103 -8 42 7 41 51 -2 33 -34 50 -75 59 -149 l5 -38 -37 5 -37 4 38 -15 c56 -23 50 -46 -10 -37 -27 4 -50 11 -51 15 -2 5 -8 7 -13 3 -20 -12 -7 -22 37 -29 25 -3 48 -13 51 -21 9 -24 -5 -29 -50 -17 -23 6 -43 10 -45 8 -9 -8 -18 -115 -10 -115 19 0 54 23 81 54 44 51 60 105 55 189 -6 89 -34 145 -88 176 -53 30 -64 28 -56 -11z m64 -314 c28 -8 28 -15 -3 -48 -33 -36 -41 -33 -37 14 4 43 5 43 40 34z"/> <path d="M1322 820 c0 -14 2 -19 5 -12 2 6 2 18 0 25 -3 6 -5 1 -5 -13z"/> <path d="M955 630 c-3 -6 1 -7 9 -4 18 7 21 14 7 14 -6 0 -13 -4 -16 -10z"/> <path d="M2132 507 c1 -37 5 -70 10 -73 10 -7 10 49 -2 101 -7 36 -8 33 -8 -28z"/> <path d="M2157 513 c6 -79 11 -89 12 -23 0 30 -3 61 -8 68 -4 7 -6 -13 -4 -45z"/> <path d="M1022 200 c0 -19 2 -27 5 -17 2 9 2 25 0 35 -3 9 -5 1 -5 -18z"/> <path d="M1041 208 c-1 -15 4 -30 9 -33 12 -7 12 12 0 40 -8 18 -9 17 -9 -7z"/> </g> </svg> 